<?xml version="1.0" encoding="utf-8"?>
<!-- Generator: Adobe Illustrator 16.0.0, SVG Export Plug-In . SVG Version: 6.00 Build 0)  -->
<!DOCTYPE svg PUBLIC "-//W3C//DTD SVG 1.1//EN" "http://www.w3.org/Graphics/SVG/1.1/DTD/svg11.dtd">
<svg version="1.1" id="Layer_1" xmlns="http://www.w3.org/2000/svg" xmlns:xlink="http://www.w3.org/1999/xlink" x="0px" y="0px"
	 width="75px" height="75px" viewBox="0 0 75 75" enable-background="new 0 0 75 75" xml:space="preserve">
<path fill="#FFFFFF" d="M36.8,40.5c-0.4,0-0.9-0.1-1.2-0.3l-17.9-10c-0.8-0.4-1.2-1.2-1.2-2c0-0.8,0.5-1.6,1.2-2l18.1-10
	c0.8-0.4,1.8-0.4,2.5,0l19.101,10c0.8,0.4,1.3,1.2,1.3,2c0,0.8-0.5,1.6-1.2,2L38,40.2C37.6,40.4,37.2,40.5,36.8,40.5 M37,18
	c-0.1,0-0.1,0-0.2,0L18.7,28c-0.1,0.1-0.2,0.2-0.2,0.3c0,0.1,0.1,0.2,0.2,0.3l17.9,10c0.1,0,0.2,0,0.3,0l19.3-10
	c0.1,0,0.1-0.1,0.1-0.2s-0.1-0.2-0.2-0.3L37.1,18H37"/>
<path fill="#FFFFFF" d="M36.8,59c-0.4,0-0.9-0.1-1.2-0.3l-17.7-10c-0.8-0.4-1-1.2-1-2v-13c0-0.6,0.4-1,1-1s1,0.5,1,1v13
	c0,0.1-0.1,0.2,0,0.3l17.9,10c0.1,0,0.2,0,0.3,0l19.4-10c0.1,0,0.2-0.1,0.2-0.2v-13c0-0.6,0.399-1,1-1c0.6,0,1,0.5,1,1v13
	c0,0.8-0.5,1.601-1.3,2L38,58.7C37.6,58.9,37.2,59,36.8,59"/>
<path fill="#FFFFFF" d="M37.5,0.5c-20.4,0-37,16.6-37,37c0,20.4,16.6,37,37,37c20.4,0,37-16.6,37-37C74.5,17.1,57.9,0.5,37.5,0.5
	 M37.5,70.3c-18.1,0-32.8-14.7-32.8-32.8c0-18.1,14.7-32.8,32.8-32.8c18.1,0,32.8,14.7,32.8,32.8C70.3,55.6,55.6,70.3,37.5,70.3"/>
</svg>
