<?xml version="1.0" encoding="utf-8"?>
<!-- Generator: Adobe Illustrator 16.0.0, SVG Export Plug-In . SVG Version: 6.00 Build 0)  -->
<!DOCTYPE svg PUBLIC "-//W3C//DTD SVG 1.1//EN" "http://www.w3.org/Graphics/SVG/1.1/DTD/svg11.dtd">
<svg version="1.1" id="Layer_1" xmlns="http://www.w3.org/2000/svg" xmlns:xlink="http://www.w3.org/1999/xlink" x="0px" y="0px"
	 width="75px" height="75px" viewBox="0 0 75 75" enable-background="new 0 0 75 75" xml:space="preserve">
<path fill="#FFFFFF" d="M37.5,0.5c-20.4,0-37,16.6-37,37c0,20.4,16.6,37,37,37c20.4,0,37-16.6,37-37C74.5,17.1,57.9,0.5,37.5,0.5
	 M37.5,70.3c-18.1,0-32.8-14.7-32.8-32.8c0-18.1,14.7-32.8,32.8-32.8c18.1,0,32.8,14.7,32.8,32.8C70.3,55.6,55.6,70.3,37.5,70.3"/>
<polygon fill="#FFFFFF" points="39.7,16.4 33.7,16.4 33.7,31.9 17.5,31.9 17.5,39.3 33.7,39.3 33.7,56.1 39.7,56.1 39.7,39.3 
	57.2,39.3 57.2,31.9 39.7,31.9 "/>
</svg>
