<?xml version="1.0" encoding="utf-8"?>
<!-- Generator: Adobe Illustrator 16.0.0, SVG Export Plug-In . SVG Version: 6.00 Build 0)  -->
<!DOCTYPE svg PUBLIC "-//W3C//DTD SVG 1.1//EN" "http://www.w3.org/Graphics/SVG/1.1/DTD/svg11.dtd">
<svg version="1.1" id="Layer_1" xmlns="http://www.w3.org/2000/svg" xmlns:xlink="http://www.w3.org/1999/xlink" x="0px" y="0px"
	 width="75px" height="75px" viewBox="0 0 75 75" enable-background="new 0 0 75 75" xml:space="preserve">
<path fill="#FFFFFF" d="M37.5,0.5c-20.4,0-37,16.6-37,37c0,20.4,16.6,37,37,37c20.4,0,37-16.6,37-37C74.5,17.1,57.9,0.5,37.5,0.5
	 M37.5,70.3c-18.1,0-32.8-14.7-32.8-32.8c0-18.1,14.7-32.8,32.8-32.8c18.1,0,32.8,14.7,32.8,32.8C70.3,55.6,55.6,70.3,37.5,70.3"/>
<path fill="#FFFFFF" d="M53.7,60.2H23c-3.1,0-6.8-1.9-6.8-5v-3.7c0-2.9,2.8-5.9,5.7-6.8l5.6-1.8C29.6,42.3,31,40.6,31,39.5v-3.8h2
	v3.8c0,2.2-1.8,4.6-4.6,5.5l-5.8,1.8c-1.9,0.601-3.7,2.7-3.7,4.7v3.7c0,1.8,2.3,3,4.1,3h30.7c1.899,0,2.2-1.2,2.2-3v-3.7
	c0-1.9-1-4.1-2.9-4.7L47.1,45c-2.8-0.9-5.3-3.3-5.3-5.5v-3.8h2v3.8c0,1.1,2.101,2.8,4.2,3.4l5.6,1.8c2.801,0.899,5,3.899,5,6.8v3.7
	C58.6,58.3,56.8,60.2,53.7,60.2"/>
<path fill="#FFFFFF" d="M38.4,39.3c-0.101,0-0.2,0-0.4,0l0,0h-0.1c-2.6-0.3-6.8-2.3-9-5.3c-2.4-3.2-2.4-7-2.4-9.8
	c0-5.8,3.6-11.9,11.5-12.1h0.6c7.9,0.2,11.5,6.2,11.5,12c0,2.8,0,6.6-2.399,9.8c-2,2.6-5.9,4.9-8.9,5.3
	C38.7,39.2,38.6,39.3,38.4,39.3 M38.2,14.6c-7,0.1-9.5,5.3-9.5,9.7c0,2.6,0,5.8,1.9,8.4c1.8,2.4,5.4,4.2,7.5,4.3
	c2.101,0,5.9-1.9,7.7-4.4c1.9-2.6,1.9-5.8,1.9-8.4C47.8,19.9,45.3,14.7,38.2,14.6"/>
</svg>
