<?xml version="1.0" encoding="utf-8"?>
<!-- Generator: Adobe Illustrator 17.0.0, SVG Export Plug-In . SVG Version: 6.00 Build 0)  -->
<!DOCTYPE svg PUBLIC "-//W3C//DTD SVG 1.1//EN" "http://www.w3.org/Graphics/SVG/1.1/DTD/svg11.dtd">
<svg version="1.1" id="Layer_1" xmlns="http://www.w3.org/2000/svg" xmlns:xlink="http://www.w3.org/1999/xlink" x="0px" y="0px"
	 width="580.8px" height="174.3px" viewBox="0 0 580.8 174.3" enable-background="new 0 0 580.8 174.3" xml:space="preserve">
<g>
	<polygon fill="#65B22E" points="13.5,48 13.5,128.6 82.3,164.9 150.6,126.7 150.7,48 82.3,8.6 	"/>
	<polygon fill="#35B558" points="104.4,152.5 150.6,126.7 150.6,100.8 	"/>
	<g>
		<defs>
			<polygon id="SVGID_1_" points="13.5,48 13.5,128.6 82.3,164.9 150.6,126.7 150.7,48 82.3,8.6 			"/>
		</defs>
		<clipPath id="SVGID_2_">
			<use xlink:href="#SVGID_1_"  overflow="visible"/>
		</clipPath>
		<polygon clip-path="url(#SVGID_2_)" fill="#4FAE47" points="90.4,168.1 -24.7,142.5 -40.1,246.8 		"/>
	</g>
	<polygon fill="#35B558" points="13.5,123.4 80.5,89.9 13.5,67.1 	"/>
	<polygon fill="#70BF54" points="80.5,89.9 150.7,57.9 150.7,48 91.1,13.7 	"/>
	<polygon fill="#60BC56" points="80.5,89.9 89.5,160.8 104.4,152.5 150.6,100.8 150.7,57.9 	"/>
	<polygon fill="#00AE5A" points="13.5,123.4 13.5,128.6 82.3,164.9 89.5,160.8 80.5,89.9 	"/>
	<g>
		<defs>
			<polygon id="SVGID_3_" points="13.5,48 13.5,128.6 82.3,164.9 150.6,126.7 150.7,48 82.3,8.6 			"/>
		</defs>
		<clipPath id="SVGID_4_">
			<use xlink:href="#SVGID_3_"  overflow="visible"/>
		</clipPath>
		<polygon clip-path="url(#SVGID_4_)" fill="#85BC40" points="101.1,-57.2 -58.5,-46.3 -46.4,46.7 		"/>
		<polygon clip-path="url(#SVGID_4_)" fill="#00A14C" points="248.3,238.2 216.9,142.1 104.1,270.9 		"/>
		<polygon clip-path="url(#SVGID_4_)" fill="#76B742" points="224.8,-80.3 101.1,-57.2 215.3,28.5 		"/>
	</g>
	<polygon fill="#50AF47" points="13.5,48 13.5,67.1 80.5,89.9 91.1,13.7 82.3,8.6 	"/>
	<g>
		<defs>
			<polygon id="SVGID_5_" points="13.5,48 13.5,128.6 82.3,164.9 150.6,126.7 150.7,48 82.3,8.6 			"/>
		</defs>
		<clipPath id="SVGID_6_">
			<use xlink:href="#SVGID_5_"  overflow="visible"/>
		</clipPath>
		<polygon clip-path="url(#SVGID_6_)" fill="#35A949" points="216.9,142.1 90.4,168.1 104.1,270.9 		"/>
	</g>
	<path fill="#FFFFFF" d="M153.6,42.7L84.7,2.9c-1.6-0.9-3.6-0.9-5.2,0l-69,39.9C9,43.8,8,45.5,8,47.3c0,1.9,1,3.6,2.6,4.5l68.9,39.7
		c0.8,0.5,1.7,0.7,2.6,0.7c0.9,0,1.8-0.2,2.6-0.7l69-39.8c1.6-0.9,2.6-2.6,2.6-4.5C156.2,45.4,155.2,43.7,153.6,42.7 M82.1,81.1
		L23.5,47.3l58.6-33.9l58.6,33.8L82.1,81.1z"/>
	<path fill="#FFFFFF" d="M151.1,66.1c-2.9,0-5.2,2.3-5.2,5.2V124l-63.8,36.8l-63.8-36.7V71.4c0-2.9-2.3-5.2-5.2-5.2
		c-2.9,0-5.2,2.3-5.2,5.2v55.7c0,1.9,1,3.6,2.6,4.5l68.9,39.7c0.8,0.5,1.7,0.7,2.6,0.7c0.9,0,1.8-0.2,2.6-0.7l69-39.8
		c1.6-0.9,2.6-2.6,2.6-4.5V71.3C156.2,68.4,153.9,66.1,151.1,66.1"/>
	<path fill="#FFFFFF" d="M187.5,67.5c0-3.1,2.5-5.6,5.6-5.6h16.1c3.1,0,5.6,2.5,5.6,5.6v46.2c0,3.1-2.5,5.6-5.6,5.6h-16.1
		c-3.1,0-5.6-2.5-5.6-5.6V67.5z M209.3,49.7h-16.1c-9.8,0-17.8,8-17.8,17.8v46.2c0,9.8,8,17.8,17.8,17.8h16.1
		c9.8,0,17.8-8,17.8-17.8V67.5C227.1,57.7,219.1,49.7,209.3,49.7"/>
	<path fill="#FFFFFF" d="M367.4,86.5l-19.8,0c-3.4,0-6.1,2.7-6.1,6.1c0,3.4,2.7,6.1,6.1,6.1h13.7v15c0,3.1-2.5,5.6-5.6,5.6h-16.1
		c-3.1,0-5.6-2.5-5.6-5.6V67.5c0-3.1,2.5-5.6,5.6-5.6h16.1c3.1,0,5.6,2.5,5.6,5.6c0,3.4,2.7,6.1,6.1,6.1c3.4,0,6.1-2.7,6.1-6.1
		c0-9.8-8-17.8-17.8-17.8h-16.1c-9.8,0-17.8,8-17.8,17.8v46.2c0,9.8,8,17.8,17.8,17.8h16.1c9.8,0,17.8-8,17.8-17.8V92.6
		c0-1.6-0.6-3.2-1.8-4.3C370.5,87.2,369,86.5,367.4,86.5"/>
	<path fill="#FFFFFF" d="M305.4,49.7c-3.4,0-6.1,2.7-6.1,6.1v69.7c0,3.4,2.7,6.1,6.1,6.1c3.4,0,6.1-2.7,6.1-6.1V55.8
		C311.5,52.4,308.8,49.7,305.4,49.7"/>
	<path fill="#FFFFFF" d="M389.8,49.8c-3.4,0-6.1,2.7-6.1,6.1v69.7c0,3.4,2.7,6.1,6.1,6.1c3.4,0,6.1-2.7,6.1-6.1V55.8
		C395.9,52.5,393.1,49.8,389.8,49.8"/>
	<path fill="#FFFFFF" d="M451.8,49.8c-3.4,0-6.1,2.7-6.1,6.1v50.4l-28.2-53.4c-1.1-1.9-3.1-3.1-5.3-3.1c-0.5,0-6.1,0-6.1,6.1v69.7
		c0,3.4,2.7,6.1,6.1,6.1c3.4,0,6.1-2.7,6.1-6.1V77.6l28.2,51c1.9,3.4,5.4,3.2,6.9,2.9c2.7-0.7,4.5-3.1,4.5-5.9V55.8
		C457.9,52.5,455.1,49.8,451.8,49.8"/>
	<path fill="#FFFFFF" d="M566.8,119.4h-24.9V55.8c0-3.4-2.7-6.1-6.1-6.1c-3.4,0-6.1,2.7-6.1,6.1v69.7c0,3.4,2.7,6.1,6.1,6.1h30.9
		c3.4,0,6.1-2.7,6.1-6.1C572.9,122.2,570.1,119.4,566.8,119.4"/>
	<path fill="#FFFFFF" d="M276.9,78.8c0,3.1-2.5,7.8-5.6,7.8h-21.8V67.5c0-3.1,2.5-5.6,5.6-5.6h16.1c3.1,0,5.6,2.5,5.6,5.6V78.8z
		 M271.3,49.7h-16.1c-9.8,0-17.8,8-17.8,17.8v57.9c0,3.4,2.7,6.1,6.1,6.1c3.4,0,6.1-2.7,6.1-6.1V98.8h12.4l15.7,29.9
		c1.2,2.4,4.8,4.4,8.3,2.4c2.9-1.6,4-5.3,2.4-8.3l-12.8-24.6c7.8-1.9,13.6-11.1,13.6-19.5V67.5C289.1,57.7,281.1,49.7,271.3,49.7"/>
	<path fill="#FFFFFF" d="M507.4,86.6h-27.2V67.5c0-3.1,2.5-5.6,5.6-5.6h16c3.1,0,5.6,2.5,5.6,5.6V86.6z M501.9,49.8h-16
		c-9.8,0-17.8,8-17.8,17.8v57.9c0,3.4,2.7,6.1,6.1,6.1c3.4,0,6.1-2.7,6.1-6.1V98.8h27.2v26.6c0,3.4,2.7,6.1,6.1,6.1
		c3.4,0,6.1-2.6,6.1-6.2V69C519.6,57.4,511.7,49.8,501.9,49.8"/>
	<path fill="#FFFFFF" d="M249.6,36.1c0,1.6,1.3,2.9,2.9,2.9c1.6,0,2.9-1.2,2.9-3V23.6c0-5.5-3.8-9.2-8.4-9.2h-7.6
		c-4.6,0-8.4,3.8-8.4,8.4v13.1c0,1.6,1.3,2.9,2.9,2.9c1.6,0,2.9-1.3,2.9-2.9V22.9c0-1.5,1.2-2.6,2.6-2.6h7.6c1.5,0,2.6,1.2,2.6,2.6
		V36.1z"/>
	<path fill="#FFFFFF" d="M223,28.3c1.6,0,1-1.3,1-2.9c0-1.6,0.7-2.9-1.1-2.9h-10.4c-5.5,0-9.2,3.8-9.1,8.4v-0.4
		c0,4.6,3.8,8.4,8.4,8.4h4.9c1.6,0,2.9-1.3,2.9-2.9c0-1.6-1.3-2.9-2.9-2.9h-4.9c-1.5,0-2.6-1.2-2.6-2.6v0.4c0-1.5,1.2-2.6,2.6-2.6
		H223z"/>
	<path fill="#FFFFFF" d="M211.1,33.2c-1.6,0-2.9,1.3-2.9,2.9c0,1.6,1.2,2.9,3,2.9h7.2c5.5,0,9.2-3.8,9.2-8.4v-7.6
		c0-4.6-3.8-8.4-8.4-8.4h-11.9c-1.6,0-2.9,1.3-2.9,2.9c0,1.6,1.3,2.9,2.9,2.9H219c1.5,0,2.6,1.2,2.6,2.6v7.6c0,1.5-1.2,2.6-2.6,2.6
		H211.1z"/>
	<path fill="#FFFFFF" d="M279.1,20.3c1.6,0,2.9-1.3,2.9-2.9c0-1.6-1.2-2.9-3-2.9h-11.1c-5.5,0-9.2,3.8-9.1,8.4v7.6
		c0,4.6,3.8,8.4,8.4,8.4h11.9c1.6,0,2.9-1.3,2.9-2.9c0-1.6-1.3-2.9-2.9-2.9h-11.9c-1.5,0-2.6-1.2-2.6-2.6v-7.6
		c0-1.5,1.2-2.6,2.6-2.6H279.1z"/>
	<path fill="#FFFFFF" d="M304.3,30.5c0,1.5-1.2,2.6-2.6,2.6h-6.5h0H294c-1.5,0-2.6-1.2-2.6-2.6v-7.6c0-1.5,1.2-2.6,2.6-2.6h6.5h0
		h1.1c1.5,0,2.6,1.2,2.6,2.6V30.5z M301.7,14.5h-6.5h0h-0.4c-5.5,0-9.2,3.8-9.2,8.4v7.6c0,4.6,3.8,8.4,8.4,8.4h6.5l0,0h0.4
		c5.5,0,9.2-3.8,9.2-8.4v-7.6C310.1,18.3,306.3,14.5,301.7,14.5"/>
	<path fill="#FFFFFF" d="M193.7,18.7c0,0,2.9-0.3,2.9-5.1v-3.2c0-4.4-3.6-8-8-8h-6.6c-6.2,0-6.7,1.7-6.7,8V14V27V31c0,6.2,1.4,8,8,8
		h9.4c4.4,0,8-3.6,8-8v-5C200.7,19.4,193.7,18.7,193.7,18.7 M182.1,7.8h6.6c1.4,0,2.5,1.1,2.5,2.5v3.2c0,1.4-1.1,3.5-2.5,3.5H187
		l-1.1,0h-5.2v-6.7C180.8,8.3,180.1,7.8,182.1,7.8 M195.2,31c0,1.4-1.1,2.5-2.5,2.5h-9.4c-2.1,0-2.5-0.5-2.5-2.5V27v-4.7h7.5l0.7,0
		h3.6c1.4,0,2.5,2.1,2.5,3.5V31z"/>
</g>
</svg>
