<?xml version="1.0" encoding="utf-8"?>
<!-- Generator: Adobe Illustrator 16.0.0, SVG Export Plug-In . SVG Version: 6.00 Build 0)  -->
<!DOCTYPE svg PUBLIC "-//W3C//DTD SVG 1.1//EN" "http://www.w3.org/Graphics/SVG/1.1/DTD/svg11.dtd">
<svg version="1.1" id="Layer_1" xmlns="http://www.w3.org/2000/svg" xmlns:xlink="http://www.w3.org/1999/xlink" x="0px" y="0px"
	 width="75px" height="75px" viewBox="0 0 75 75" enable-background="new 0 0 75 75" xml:space="preserve">
<g>
	<path fill="#FFFFFF" d="M37.5,0.5c-20.4,0-37,16.6-37,37c0,20.4,16.6,37,37,37c20.4,0,37-16.6,37-37C74.5,17.1,57.9,0.5,37.5,0.5
		 M37.5,70.3c-18.1,0-32.8-14.7-32.8-32.8c0-18.1,14.7-32.8,32.8-32.8c18.1,0,32.8,14.7,32.8,32.8C70.3,55.6,55.6,70.3,37.5,70.3"/>
	<path fill="#FFFFFF" d="M22.9,31.7v1.1c0,0.5-0.5,0.8-1,0.8s-1-0.4-1-0.8v-1.1c-1.3,0-2.2-0.2-3.1-0.6c-0.5-0.2-0.8-0.6-0.8-1
		c0-0.5,0.3-1,0.9-1c0.4,0,0.7,0.3,1.5,0.5c0.4,0.1,0.9,0.2,1.6,0.2c2.1,0,3-0.9,3-2.2c0-1-0.5-1.4-1.9-1.8c-1-0.3-2.6-0.5-3.6-1
		s-1.5-1.4-1.5-3c0-2.3,1.7-3.8,3.7-4.1v-1.2c0-0.5,0.5-0.8,1-0.8s1,0.4,1,0.8v1.1c0.7,0,1.3,0.1,2.1,0.5c0.5,0.2,0.6,0.5,0.6,0.9
		c0,0.5-0.4,1-1.1,1c-0.3,0-0.7-0.2-1.4-0.4c-0.3-0.1-0.8-0.1-1.4-0.1c-1.6,0-2.6,0.8-2.6,2c0,1.1,0.6,1.5,1.9,1.8
		c1.1,0.3,2.8,0.5,3.8,1.1s1.8,1.6,1.8,2.9C26.6,29.9,24.9,31.4,22.9,31.7"/>
	<path fill="#FFFFFF" d="M25.1,58.9h-2V45.7h-5.3v13.2h-2V44.7c0-0.601,0.4-1,1-1h7.3c0.6,0,1,0.399,1,1V58.9z"/>
	<path fill="#FFFFFF" d="M36.6,58.9h-2V42h-5.3v17h-2V41c0-0.6,0.4-1,1-1h7.3c0.6,0,1,0.4,1,1V58.9z"/>
	<path fill="#FFFFFF" d="M48,58.9h-2V34.4h-5.3v24.5h-2V33.4c0-0.6,0.399-1,1-1H47c0.6,0,1,0.4,1,1V58.9z"/>
	<path fill="#FFFFFF" d="M59.4,58.9h-2V19.4H52.1V59h-2V18.4c0-0.6,0.4-1,1-1H58.4c0.6,0,1,0.4,1,1V58.9z"/>
	<path fill="#FFFFFF" d="M47.6,27.4C47.4,27.6,47.2,27.7,46.9,27.8c-0.5,0.1-1-0.2-1.101-0.7L45,19.8l-7.4,0.8
		c-0.5,0.1-1-0.3-1.1-0.9c-0.1-0.5,0.3-1,0.9-1.1l8.4-0.9c0.3,0,0.5-0.1,0.7,0.1c0.2,0.2,0.3,0.3,0.4,0.6l0.899,8.4
		C47.8,27,47.7,27.2,47.6,27.4"/>
	<path fill="#FFFFFF" d="M19,39.9c-0.4,0-0.8-0.301-1-0.7c-0.2-0.5,0.2-1.101,0.7-1.2c10.5-3.1,19.6-9.8,25.6-19.1
		c0.3-0.5,0.9-0.6,1.4-0.3c0.5,0.3,0.6,0.9,0.3,1.4c-6.2,9.6-15.7,16.7-26.7,19.9C19.2,39.9,19.1,39.9,19,39.9"/>
</g>
</svg>
