<?xml version="1.0" encoding="utf-8"?>
<!-- Generator: Adobe Illustrator 16.0.0, SVG Export Plug-In . SVG Version: 6.00 Build 0)  -->
<!DOCTYPE svg PUBLIC "-//W3C//DTD SVG 1.1//EN" "http://www.w3.org/Graphics/SVG/1.1/DTD/svg11.dtd">
<svg version="1.1" id="Layer_1" xmlns="http://www.w3.org/2000/svg" xmlns:xlink="http://www.w3.org/1999/xlink" x="0px" y="0px"
	 width="75px" height="75px" viewBox="0 0 75 75" enable-background="new 0 0 75 75" xml:space="preserve">
<path fill="#FFFFFF" d="M37.5,0.5c-20.4,0-37,16.6-37,37c0,20.4,16.6,37,37,37c20.4,0,37-16.6,37-37C74.5,17.1,57.9,0.5,37.5,0.5
	 M37.5,70.3c-18.1,0-32.8-14.7-32.8-32.8c0-18.1,14.7-32.8,32.8-32.8c18.1,0,32.8,14.7,32.8,32.8C70.3,55.6,55.6,70.3,37.5,70.3"/>
<g>
	<path fill="#FFFFFF" d="M59.2,27.1v-1.6c0-1.8-0.2-4.1-2.101-4.1H55c-1.8,0-3.6,2.3-3.6,4.1V27H50.6c-0.8,0-1.5,0.7-1.5,1.5v6.1
		c0,0.8,0.7,1.5,1.5,1.5H58.9c0.8,0,1.5-0.7,1.5-1.5v-6.1C60.3,27.8,59.9,27.2,59.2,27.1z M53.6,25.5c0-0.6,0.801-0.8,1.4-0.8h2.1
		c0.601,0-0.1,0.1-0.1,0.8V27h-3.4V25.5z M56.7,32.9C56.6,33,56.4,33.1,56,33.1c-0.2,0-0.5-0.1-0.7-0.2c-0.1-0.1-0.2-0.3-0.1-0.5
		l0.3-1c-0.1-0.1-0.1-0.2-0.1-0.5c0-0.3,0.3-0.7,0.699-0.7c0.301,0,0.7,0.3,0.7,0.7c0,0.1-0.1,0.3-0.1,0.5l0.3,1
		C56.8,32.6,56.8,32.8,56.7,32.9z"/>
	<path fill="#FFFFFF" d="M50.8,44.7l-5.6-1.8c-2.101-0.7-3.8-2.2-3.8-3.301v-1.7c1.399-0.9,2.399-1.9,3.3-3c2.3-3.1,2.3-6.8,2.3-9.5
		c0-5.6-3.4-11.4-11.1-11.7l-0.1-0.2h-0.3l-0.1,0.2c-7.7,0.2-11.1,6.2-11.1,11.7c0,2.6,0,6.4,2.3,9.5c0.7,1,1.7,1.8,2.6,2.5v2.1
		c0,1.1-1.6,2.8-3.6,3.3L20,44.6c-2.8,0.9-5.3,3.801-5.3,6.7V55c0,3,3.1,6.4,6.2,6.4h29.9c3,0,5.3-3.4,5.3-6.4v-3.7
		C55.9,48.5,53.6,45.6,50.8,44.7z M28.1,33.6c-1.9-2.4-1.9-5.7-1.9-8.1c0-4.2,2.4-9.4,9.3-9.4c6.8,0.1,9.3,5.2,9.3,9.4
		c0,2.5,0,5.7-1.899,8.1c-1.801,2.4-5.5,4.2-7.5,4.2C33.3,37.7,29.8,36,28.1,33.6z M53.6,55.1c0,1.801-1.3,3.101-3,3.101h-30
		c-1.8,0-3.9-1.4-3.9-3.101V51.4c0-1.9,1.6-4,3.4-4.7l5.6-1.8c2.8-0.9,4.4-3.2,4.4-5.5V38.1c1.8,1,3.6,1.801,5,1.9l0.1,0.1l0,0
		c0.1,0,0.2-0.1,0.3-0.1s0.2-0.1,0.3-0.1c1-0.101,2.1-0.5,3.101-0.9v0.5c0,2.2,2.5,4.6,5.399,5.5l6,1.8c1.9,0.601,3.2,2.601,3.2,4.7
		C53.6,51.5,53.6,55.1,53.6,55.1z"/>
</g>
</svg>
